<svg xmlns="http://www.w3.org/2000/svg" width="100" height="100" viewBox="0 0 100 100">
  <g id="Groupe_918" data-name="Groupe 918" transform="translate(-303 -1085)">
    <g id="Tracé_84" data-name="Tracé 84" transform="translate(303 1085)" fill="none">
      <path d="M50,0A50,50,0,1,1,0,50,50,50,0,0,1,50,0Z" stroke="none"/>
      <path d="M 50 5 C 43.92283630371094 5 38.03010940551758 6.189109802246094 32.48551177978516 8.534271240234375 C 27.12752532958984 10.80050659179688 22.31452941894531 14.04585266113281 18.18019866943359 18.18019866943359 C 14.04585266113281 22.31452941894531 10.80050659179688 27.12752532958984 8.534271240234375 32.48551177978516 C 6.189109802246094 38.03010940551758 5 43.92283630371094 5 50 C 5 56.07716369628906 6.189109802246094 61.96989059448242 8.534271240234375 67.51449584960938 C 10.80050659179688 72.87247467041016 14.04585266113281 77.68547058105469 18.18019866943359 81.81980133056641 C 22.31452941894531 85.95414733886719 27.12752532958984 89.19949340820312 32.48551177978516 91.46572875976562 C 38.03010940551758 93.81089019775391 43.92283630371094 95 50 95 C 56.07716369628906 95 61.96989059448242 93.81089019775391 67.51449584960938 91.46572875976562 C 72.87247467041016 89.19949340820312 77.68547058105469 85.95414733886719 81.81980133056641 81.81980133056641 C 85.95414733886719 77.68547058105469 89.19949340820312 72.87247467041016 91.46572875976562 67.51449584960938 C 93.81089019775391 61.96989059448242 95 56.07716369628906 95 50 C 95 43.92283630371094 93.81089019775391 38.03010940551758 91.46572875976562 32.48551177978516 C 89.19949340820312 27.12752532958984 85.95414733886719 22.31452941894531 81.81980133056641 18.18019866943359 C 77.68547058105469 14.04585266113281 72.87247467041016 10.80050659179688 67.51449584960938 8.534271240234375 C 61.96989059448242 6.189109802246094 56.07716369628906 5 50 5 M 50 0 C 77.61423492431641 0 100 22.38576507568359 100 50 C 100 77.61423492431641 77.61423492431641 100 50 100 C 22.38576507568359 100 0 77.61423492431641 0 50 C 0 22.38576507568359 22.38576507568359 0 50 0 Z" stroke="none" fill="#e6805e"/>
    </g>
    <path id="Tracé_85" data-name="Tracé 85" d="M91.426,61.541,79.909,67.526a48.888,48.888,0,0,0-3.871-3.1,109.233,109.233,0,0,0-10.526-6.687c-1.715-.961-3.323-1.8-4.711-2.467l-.392-.182c.471-.687.74-1.144.767-1.187l-3.625-2.122-.792-.468,0,0h0a23.26,23.26,0,0,1-2.843,3.7,13.856,13.856,0,0,1-2.79,2.32,5.485,5.485,0,0,1-2.737.9h-.112l2.084-4.2a11.169,11.169,0,0,1,3.408-4.039,4.892,4.892,0,0,1,2.8-.811,18.676,18.676,0,0,1,3.887.645c2.636.576,4.305,1.1,5.711,1.512.7.207,1.352.394,2.035.537a10.325,10.325,0,0,0,2.152.234,12.58,12.58,0,0,0,3.123-.438c1.128-.286,2.391-.7,3.986-1.278l7.02-2.552-1.749-4.813h0l-7.016,2.551.006,0c-1.518.549-2.651.915-3.5,1.13a7.513,7.513,0,0,1-1.867.282,5.221,5.221,0,0,1-1.107-.126c-1.284-.251-3.477-1.115-7.7-2.039a22.581,22.581,0,0,0-4.978-.763,10.073,10.073,0,0,0-5.583,1.633l-.009.007a29.107,29.107,0,0,1-3.708.249A40.781,40.781,0,0,1,32.5,42.856l-1.862,4.77a46.691,46.691,0,0,0,15.546,3.408c-.1.174-.207.342-.309.523l-.033.058-3.653,7.368-.067.284a2.685,2.685,0,0,0-.072.619,2.927,2.927,0,0,0,.6,1.758,3.426,3.426,0,0,0,1.06.905,5.778,5.778,0,0,0,1.88.617,15.729,15.729,0,0,0,2.623.184h.212a10.577,10.577,0,0,0,5.407-1.672A18.113,18.113,0,0,0,57,59.173c.23.1.474.2.743.321a99.266,99.266,0,0,1,12.543,7.16,59.521,59.521,0,0,1,5.806,4.328,18.574,18.574,0,0,1,1.837,1.794,4.2,4.2,0,0,1,.693.989l.012.056.014.194a3.047,3.047,0,0,1-.435,1.449,1.741,1.741,0,0,1-.839.794h0a1.919,1.919,0,0,1-.238.062l-8.186-5a2.134,2.134,0,0,0-2.224,3.642l4.8,2.932a5.125,5.125,0,0,0-.389.43,6.321,6.321,0,0,0-.647,1.023c-.867-.319-1.956-.785-2.883-1.211-.645-.293-1.225-.57-1.642-.771l-.491-.24L65.3,77.04a2.133,2.133,0,1,0-1.91,3.815c.011.006.643.321,1.548.748a3.62,3.62,0,0,0-1.265.669l-.159.136-.135.159c-.109.131-.23.27-.357.412a5.713,5.713,0,0,1-.517-.268,18.283,18.283,0,0,1-1.736-1.168c-.253-.189-.467-.357-.615-.475l-.169-.136-.052-.042a2.134,2.134,0,0,0-2.725,3.284c.019.014.342.283.833.656a14.256,14.256,0,0,1-1.5-.223,9.8,9.8,0,0,0-2.736-4.234,5.752,5.752,0,0,0,.037-.627,5.972,5.972,0,0,0-3.724-5.555,5.93,5.93,0,0,0,.057-.8,5.969,5.969,0,0,0-4.321-5.761,6,6,0,0,0-10.709-3.61L30.3,70.173h0a6.014,6.014,0,0,0,1,8.428h0a5.985,5.985,0,0,0,3.66,1.281,5.97,5.97,0,0,0,5.289,4,5.974,5.974,0,0,0,7.1,4.066,4.775,4.775,0,0,0,1.529,2.121l.179.14a4.7,4.7,0,0,0,2.921,1.012,4.975,4.975,0,0,0,3.612-1.588,17.76,17.76,0,0,0,3.488.373,9.151,9.151,0,0,0,5.976-1.865,17.2,17.2,0,0,0,1.658-1.621,11.5,11.5,0,0,0,1.761.15,6.174,6.174,0,0,0,2.624-.517h0a7.012,7.012,0,0,0,2.195-1.7,9.257,9.257,0,0,0,1.613-2.524h0a2.017,2.017,0,0,1,.2-.384c.042-.006.1-.014.193-.019.27-.021.752,0,1.39-.025a8.066,8.066,0,0,0,2.319-.4,6.784,6.784,0,0,0,3.589-3.014,8.082,8.082,0,0,0,1.162-4.078,5.816,5.816,0,0,0-.362-2.073h0c-.052-.131-.117-.248-.174-.372l10.555-5.486ZM43.132,76.03,41.262,78.4c-.062.078-.116.159-.172.24a.918.918,0,0,1-.471.137.857.857,0,0,1-.539-.185h0a.877.877,0,0,1-.331-.7.861.861,0,0,1,.186-.542v0l3.559-4.517v0a.875.875,0,0,1,.7-.331.86.86,0,0,1,.542.186.878.878,0,0,1,.331.7.865.865,0,0,1-.187.542l-1.15,1.461A5.962,5.962,0,0,0,43.132,76.03Zm-8.808-2.688,4.85-6.156v0a.876.876,0,0,1,.7-.331.858.858,0,0,1,.539.185l0,0a.877.877,0,0,1,.331.7.863.863,0,0,1-.187.541L35.71,74.432a.879.879,0,0,1-.7.332.859.859,0,0,1-.54-.184.882.882,0,0,1-.332-.7A.857.857,0,0,1,34.324,73.341Zm12.344,9.323a.875.875,0,0,1-.7.331.854.854,0,0,1-.539-.185h0a.878.878,0,0,1-.332-.7.924.924,0,0,1,.045-.276c.065-.075.134-.143.2-.221l2.075-2.634a.922.922,0,0,1,.439-.118.86.86,0,0,1,.539.185l0,0a.875.875,0,0,1,.331.7.86.86,0,0,1-.186.542h0L46.67,82.662Zm6.17,4.308h0l-.01.011Zm.062-.135-.05.113-.013.022a1.15,1.15,0,0,1-.855.413.851.851,0,0,1-.544-.188l0,0-.178-.14,0,0a.959.959,0,0,1-.363-.76.944.944,0,0,1,.2-.59l.359-.457c.08-.1.37-.453.717-.932a3.638,3.638,0,0,1,.794,2.048A1.445,1.445,0,0,1,52.9,86.838ZM62.867,83.1Z" transform="translate(293.981 1073.144)" fill="#e6805e"/>
  </g>
</svg>
