<svg xmlns="http://www.w3.org/2000/svg" width="100" height="100" viewBox="0 0 100 100">
  <g id="Groupe_920" data-name="Groupe 920" transform="translate(-1320 -1079)">
    <path id="Tracé_83" data-name="Tracé 83" d="M83.023,36.923,64.638,19.676l-14.071,13.2,3.48,3.316-3.584,3.364L46.6,35.931c3.957-7-.028-11.332-.317-11.627L31.05,10.008,27.329,13.5l15.144,14.21c.03.032,2.554,2.988-2.611,8.8L21.338,19.124l-3.723,3.494L36.139,40c-5.8,4.529-8.95,2.727-9.384,2.437l-15.131-14.2L7.9,31.734,23.231,46.117a9.5,9.5,0,0,0,5.922,1.877A14.248,14.248,0,0,0,35.5,46.358l.317.3L20.941,60.619a4.507,4.507,0,0,0,0,6.64l3.538,3.321a5.251,5.251,0,0,0,7.075,0L46.429,56.617,61.49,70.753a5.5,5.5,0,0,0,7.4,0l3.7-3.474a4.717,4.717,0,0,0,0-6.948L54,42.876l3.556-3.339,18.458,17.59,5.536-5.194C80.131,45.022,83.023,36.923,83.023,36.923ZM28.015,67.261,24.479,63.94l14.387-13.5L42.4,53.756Zm37.176.018L39.869,43.512l.005,0,.067.065,1.84-1.729.021-.018L43.639,40.1,68.894,63.8Zm10.79-17.224-18-17.15,6.653-6.243L77.131,38.381A36.84,36.84,0,0,0,75.981,50.055Z" transform="translate(1324.096 1087.992)" fill="#6bb879"/>
    <g id="Tracé_86" data-name="Tracé 86" transform="translate(1320 1079)" fill="none">
      <path d="M50,0A50,50,0,1,1,0,50,50,50,0,0,1,50,0Z" stroke="none"/>
      <path d="M 50 5 C 43.92283630371094 5 38.03010940551758 6.189109802246094 32.48551177978516 8.534271240234375 C 27.12752532958984 10.80050659179688 22.31452941894531 14.04585266113281 18.18019866943359 18.18019866943359 C 14.04585266113281 22.31452941894531 10.80050659179688 27.12752532958984 8.534271240234375 32.48551177978516 C 6.189109802246094 38.03010940551758 5 43.92283630371094 5 50 C 5 56.07716369628906 6.189109802246094 61.96989059448242 8.534271240234375 67.51449584960938 C 10.80050659179688 72.87247467041016 14.04585266113281 77.68547058105469 18.18019866943359 81.81980133056641 C 22.31452941894531 85.95414733886719 27.12752532958984 89.19949340820312 32.48551177978516 91.46572875976562 C 38.03010940551758 93.81089019775391 43.92283630371094 95 50 95 C 56.07716369628906 95 61.96989059448242 93.81089019775391 67.51449584960938 91.46572875976562 C 72.87247467041016 89.19949340820312 77.68547058105469 85.95414733886719 81.81980133056641 81.81980133056641 C 85.95414733886719 77.68547058105469 89.19949340820312 72.87247467041016 91.46572875976562 67.51449584960938 C 93.81089019775391 61.96989059448242 95 56.07716369628906 95 50 C 95 43.92283630371094 93.81089019775391 38.03010940551758 91.46572875976562 32.48551177978516 C 89.19949340820312 27.12752532958984 85.95414733886719 22.31452941894531 81.81980133056641 18.18019866943359 C 77.68547058105469 14.04585266113281 72.87247467041016 10.80050659179688 67.51449584960938 8.534271240234375 C 61.96989059448242 6.189109802246094 56.07716369628906 5 50 5 M 50 0 C 77.61423492431641 0 100 22.38576507568359 100 50 C 100 77.61423492431641 77.61423492431641 100 50 100 C 22.38576507568359 100 0 77.61423492431641 0 50 C 0 22.38576507568359 22.38576507568359 0 50 0 Z" stroke="none" fill="#6bb879"/>
    </g>
  </g>
</svg>
