<svg xmlns="http://www.w3.org/2000/svg" width="100" height="100" viewBox="0 0 100 100">
  <g id="Groupe_919" data-name="Groupe 919" transform="translate(-1000 -1083)">
    <g id="Groupe_915" data-name="Groupe 915" transform="translate(989.189 1076.589)">
      <path id="Tracé_74" data-name="Tracé 74" d="M71.008,89.382a10.469,10.469,0,0,1-6.782-2.494,16.121,16.121,0,0,1-3.14.307,17.486,17.486,0,0,1-2.919-.259A10.75,10.75,0,0,1,51.4,89.382,10.537,10.537,0,0,1,40.873,78.857a10.38,10.38,0,0,1,1.2-4.873,7.724,7.724,0,0,1-5.265-7.314c0-5.779,5.529-10.667,14.151-12.864a15.556,15.556,0,0,1-5.324-11.667,15.308,15.308,0,0,1,.634-4.341,8.345,8.345,0,1,1,12.465-11,14.943,14.943,0,0,1,4.855,0,8.344,8.344,0,1,1,12.465,11,15.107,15.107,0,0,1,.632,4.343A15.509,15.509,0,0,1,71.4,53.821c8.557,2.208,14.039,7.086,14.039,12.849a7.724,7.724,0,0,1-5.12,7.263,10.541,10.541,0,0,1-9.311,15.448Zm0-15.859a5.413,5.413,0,1,0,5.413,5.413A5.419,5.419,0,0,0,71.008,73.523Zm-19.532,0a5.413,5.413,0,1,0,5.413,5.413A5.419,5.419,0,0,0,51.476,73.523Zm.078-5.189a10.54,10.54,0,0,1,9.79,6.66,10.543,10.543,0,0,1,9.819-6.738,10.064,10.064,0,0,1,2.213.255,12.253,12.253,0,0,0-24.358.12A10.872,10.872,0,0,1,51.554,68.334Zm-5.426-7.1c-2.647,1.57-4.205,3.522-4.205,5.512a2.606,2.606,0,0,0,1.856,2.493A17.211,17.211,0,0,1,46.128,61.236Zm29.843-.116A17.241,17.241,0,0,1,78.39,69.2a2.606,2.606,0,0,0,2.015-2.534C80.405,64.7,78.739,62.713,75.971,61.12ZM52.179,28.6a3.267,3.267,0,0,0-3.224,3.226,3.223,3.223,0,0,0,1.7,2.881l.126.066.114.085a2.615,2.615,0,0,1,.9,3.1,10.3,10.3,0,0,0-.964,4.259,10.49,10.49,0,0,0,20.98,0,10.14,10.14,0,0,0-.908-4.129,2.493,2.493,0,0,1-.164-1.969,2.439,2.439,0,0,1,1.29-1.437,3.227,3.227,0,0,0,1.658-2.856A3.269,3.269,0,0,0,70.46,28.6a3.208,3.208,0,0,0-3.017,2.108,2.58,2.58,0,0,1-2.413,1.661,2.783,2.783,0,0,1-.539-.053,11.173,11.173,0,0,0-3.2-.493,9.979,9.979,0,0,0-2.96.448,2.181,2.181,0,0,1-.774.129,2.53,2.53,0,0,1-2.337-1.636A3.234,3.234,0,0,0,52.179,28.6Z" fill="#f5b3c4"/>
      <path id="Tracé_75" data-name="Tracé 75" d="M69.33,46.45c2.775,0,5.032,1.749,5.032,3.9s-2.257,3.9-5.032,3.9S64.3,52.5,64.3,50.348,66.555,46.45,69.33,46.45Z" transform="translate(-7.931 -6.648)" fill="#f5b3c4"/>
      <circle id="Ellipse_46" data-name="Ellipse 46" cx="1.801" cy="1.801" r="1.801" transform="translate(54.763 36.04)" fill="#f5b3c4"/>
      <circle id="Ellipse_47" data-name="Ellipse 47" cx="1.801" cy="1.801" r="1.801" transform="translate(64.376 36.04)" fill="#f5b3c4"/>
    </g>
    <g id="Tracé_86" data-name="Tracé 86" transform="translate(1000 1083)" fill="none">
      <path d="M50,0A50,50,0,1,1,0,50,50,50,0,0,1,50,0Z" stroke="none"/>
      <path d="M 50 5 C 43.92283630371094 5 38.03010940551758 6.189109802246094 32.48551177978516 8.534271240234375 C 27.12752532958984 10.80050659179688 22.31452941894531 14.04585266113281 18.18019866943359 18.18019866943359 C 14.04585266113281 22.31452941894531 10.80050659179688 27.12752532958984 8.534271240234375 32.48551177978516 C 6.189109802246094 38.03010940551758 5 43.92283630371094 5 50 C 5 56.07716369628906 6.189109802246094 61.96989059448242 8.534271240234375 67.51449584960938 C 10.80050659179688 72.87247467041016 14.04585266113281 77.68547058105469 18.18019866943359 81.81980133056641 C 22.31452941894531 85.95414733886719 27.12752532958984 89.19949340820312 32.48551177978516 91.46572875976562 C 38.03010940551758 93.81089019775391 43.92283630371094 95 50 95 C 56.07716369628906 95 61.96989059448242 93.81089019775391 67.51449584960938 91.46572875976562 C 72.87247467041016 89.19949340820312 77.68547058105469 85.95414733886719 81.81980133056641 81.81980133056641 C 85.95414733886719 77.68547058105469 89.19949340820312 72.87247467041016 91.46572875976562 67.51449584960938 C 93.81089019775391 61.96989059448242 95 56.07716369628906 95 50 C 95 43.92283630371094 93.81089019775391 38.03010940551758 91.46572875976562 32.48551177978516 C 89.19949340820312 27.12752532958984 85.95414733886719 22.31452941894531 81.81980133056641 18.18019866943359 C 77.68547058105469 14.04585266113281 72.87247467041016 10.80050659179688 67.51449584960938 8.534271240234375 C 61.96989059448242 6.189109802246094 56.07716369628906 5 50 5 M 50 0 C 77.61423492431641 0 100 22.38576507568359 100 50 C 100 77.61423492431641 77.61423492431641 100 50 100 C 22.38576507568359 100 0 77.61423492431641 0 50 C 0 22.38576507568359 22.38576507568359 0 50 0 Z" stroke="none" fill="#f5b3c4"/>
    </g>
  </g>
</svg>
