<svg xmlns="http://www.w3.org/2000/svg" width="100" height="100" viewBox="0 0 100 100">
  <g id="Groupe_926" data-name="Groupe 926" transform="translate(-1601 -1111)">
    <g id="Groupe_916" data-name="Groupe 916" transform="translate(1600.011 1102.984)">
      <path id="Tracé_76" data-name="Tracé 76" d="M81.854,43.094V28.016H51.715v5.026H46.7v5.022h5.015v5.031h5.029V53.136h5.022V43.094h5.027V58.155L46.711,68.213V88.278l20.082.017H81.871v-45.2Zm-5,40.179L51.733,83.26V71.316L71.815,61.257V38.073H56.737V33.038h20.1V48.116h.017Z" transform="translate(-6.007 0)" fill="#5fc4e1"/>
      <path id="Tracé_77" data-name="Tracé 77" d="M29.957,43.51a9.984,9.984,0,0,0,3.969,3.969h0a9.984,9.984,0,0,0-3.969,3.969h0a9.978,9.978,0,0,0-3.968-3.969h0a9.978,9.978,0,0,0,3.968-3.969Z" transform="translate(0 -4.494)" fill="#5fc4e1"/>
      <path id="Tracé_78" data-name="Tracé 78" d="M37.306,32.026a9.981,9.981,0,0,0,3.968,3.968h0a9.982,9.982,0,0,0-3.968,3.969h0a9.984,9.984,0,0,0-3.969-3.969h0a9.983,9.983,0,0,0,3.969-3.968Z" transform="translate(-2.131 -1.163)" fill="#5fc4e1"/>
      <path id="Tracé_79" data-name="Tracé 79" d="M42.062,47.6a6.352,6.352,0,0,0,2.525,2.525h0a6.352,6.352,0,0,0-2.525,2.525h0a6.35,6.35,0,0,0-2.524-2.525h0A6.35,6.35,0,0,0,42.062,47.6Z" transform="translate(-3.93 -5.681)" fill="#5fc4e1"/>
    </g>
    <g id="Tracé_86" data-name="Tracé 86" transform="translate(1601 1111)" fill="none">
      <path d="M50,0A50,50,0,1,1,0,50,50,50,0,0,1,50,0Z" stroke="none"/>
      <path d="M 50 5 C 43.92283630371094 5 38.03010940551758 6.189109802246094 32.48551177978516 8.534271240234375 C 27.12752532958984 10.80050659179688 22.31452941894531 14.04585266113281 18.18019866943359 18.18019866943359 C 14.04585266113281 22.31452941894531 10.80050659179688 27.12752532958984 8.534271240234375 32.48551177978516 C 6.189109802246094 38.03010940551758 5 43.92283630371094 5 50 C 5 56.07716369628906 6.189109802246094 61.96989059448242 8.534271240234375 67.51449584960938 C 10.80050659179688 72.87247467041016 14.04585266113281 77.68547058105469 18.18019866943359 81.81980133056641 C 22.31452941894531 85.95414733886719 27.12752532958984 89.19949340820312 32.48551177978516 91.46572875976562 C 38.03010940551758 93.81089019775391 43.92283630371094 95 50 95 C 56.07716369628906 95 61.96989059448242 93.81089019775391 67.51449584960938 91.46572875976562 C 72.87247467041016 89.19949340820312 77.68547058105469 85.95414733886719 81.81980133056641 81.81980133056641 C 85.95414733886719 77.68547058105469 89.19949340820312 72.87247467041016 91.46572875976562 67.51449584960938 C 93.81089019775391 61.96989059448242 95 56.07716369628906 95 50 C 95 43.92283630371094 93.81089019775391 38.03010940551758 91.46572875976562 32.48551177978516 C 89.19949340820312 27.12752532958984 85.95414733886719 22.31452941894531 81.81980133056641 18.18019866943359 C 77.68547058105469 14.04585266113281 72.87247467041016 10.80050659179688 67.51449584960938 8.534271240234375 C 61.96989059448242 6.189109802246094 56.07716369628906 5 50 5 M 50 0 C 77.61423492431641 0 100 22.38576507568359 100 50 C 100 77.61423492431641 77.61423492431641 100 50 100 C 22.38576507568359 100 0 77.61423492431641 0 50 C 0 22.38576507568359 22.38576507568359 0 50 0 Z" stroke="none" fill="#5fc4e1"/>
    </g>
  </g>
</svg>
