<svg xmlns="http://www.w3.org/2000/svg" width="100" height="100" viewBox="0 0 100 100">
  <g id="Groupe_917" data-name="Groupe 917" transform="translate(-605 -1085)">
    <g id="Groupe_862" data-name="Groupe 862" transform="translate(598.465 1075.925)">
      <g id="Groupe_862-2" data-name="Groupe 862" transform="translate(39.763 76.671)">
        <path id="Tracé_80" data-name="Tracé 80" d="M87.094,99.169H81.551L88,110.338l4.157-2.4Z" transform="translate(-56.459 -99.169)" fill="#2b6483"/>
        <rect id="Rectangle_428" data-name="Rectangle 428" width="4.801" height="11.935" transform="translate(15.436 0)" fill="#2b6483"/>
        <path id="Tracé_81" data-name="Tracé 81" d="M49.662,99.169,44.6,107.937l4.158,2.4L55.2,99.169Z" transform="translate(-44.598 -99.169)" fill="#2b6483"/>
      </g>
      <g id="Groupe_863" data-name="Groupe 863" transform="translate(29.535 29.075)">
        <path id="Tracé_82" data-name="Tracé 82" d="M82.787,43.436A14.346,14.346,0,0,0,68.439,29.075l-23.975.007v4.792l23.975,0A9.574,9.574,0,0,1,78,43.435H49.271c-11.62,0-19.736,8.5-19.736,20.676v7.757H82.806l-.018-28.432Zm-33.516,4.8H78v9.324l-42.564.007C37.557,51.8,42.594,48.239,49.272,48.239ZM34.337,67.065V64.112q0-.893.071-1.749H78v4.7Z" transform="translate(-29.535 -29.075)" fill="#2b6483"/>
      </g>
    </g>
    <g id="Tracé_84" data-name="Tracé 84" transform="translate(605 1085)" fill="none">
      <path d="M50,0A50,50,0,1,1,0,50,50,50,0,0,1,50,0Z" stroke="none"/>
      <path d="M 50 5 C 43.92283630371094 5 38.03010940551758 6.189109802246094 32.48551177978516 8.534271240234375 C 27.12752532958984 10.80050659179688 22.31452941894531 14.04585266113281 18.18019866943359 18.18019866943359 C 14.04585266113281 22.31452941894531 10.80050659179688 27.12752532958984 8.534271240234375 32.48551177978516 C 6.189109802246094 38.03010940551758 5 43.92283630371094 5 50 C 5 56.07716369628906 6.189109802246094 61.96989059448242 8.534271240234375 67.51449584960938 C 10.80050659179688 72.87247467041016 14.04585266113281 77.68547058105469 18.18019866943359 81.81980133056641 C 22.31452941894531 85.95414733886719 27.12752532958984 89.19949340820312 32.48551177978516 91.46572875976562 C 38.03010940551758 93.81089019775391 43.92283630371094 95 50 95 C 56.07716369628906 95 61.96989059448242 93.81089019775391 67.51449584960938 91.46572875976562 C 72.87247467041016 89.19949340820312 77.68547058105469 85.95414733886719 81.81980133056641 81.81980133056641 C 85.95414733886719 77.68547058105469 89.19949340820312 72.87247467041016 91.46572875976562 67.51449584960938 C 93.81089019775391 61.96989059448242 95 56.07716369628906 95 50 C 95 43.92283630371094 93.81089019775391 38.03010940551758 91.46572875976562 32.48551177978516 C 89.19949340820312 27.12752532958984 85.95414733886719 22.31452941894531 81.81980133056641 18.18019866943359 C 77.68547058105469 14.04585266113281 72.87247467041016 10.80050659179688 67.51449584960938 8.534271240234375 C 61.96989059448242 6.189109802246094 56.07716369628906 5 50 5 M 50 0 C 77.61423492431641 0 100 22.38576507568359 100 50 C 100 77.61423492431641 77.61423492431641 100 50 100 C 22.38576507568359 100 0 77.61423492431641 0 50 C 0 22.38576507568359 22.38576507568359 0 50 0 Z" stroke="none" fill="#2b6483"/>
    </g>
  </g>
</svg>
